<?xml version="1.0" encoding="UTF-8"?>
<svg width="17px" height="17px" viewBox="0 0 17 17" version="1.1" xmlns="http://www.w3.org/2000/svg" xmlns:xlink="http://www.w3.org/1999/xlink">
    <!-- Generator: Sketch 47 (45396) - http://www.bohemiancoding.com/sketch -->
    <title>time</title>
    <desc>Created with Sketch.</desc>
    <defs></defs>
    <g id="Page-1" stroke="none" stroke-width="1" fill="none" fill-rule="evenodd">
        <g id="快讯_2" transform="translate(-390.000000, -167.000000)" fill="#9B9B9B">
            <g id="Group-4" transform="translate(361.000000, 156.000000)">
                <g id="time" transform="translate(29.000000, 11.000000)">
                    <path d="M8.48598692,10.0408355 L11.5055364,10.0408355 C11.8803944,10.0408355 12.1823907,9.73883925 12.1823907,9.36398131 C12.1823907,8.98912336 11.8803944,8.68725421 11.5055364,8.68725421 L9.16280935,8.68725421 L9.16280935,4.83470467 C9.16280935,4.45984673 8.86081308,4.15785047 8.48598692,4.15785047 C8.11112897,4.15785047 7.80925981,4.45984673 7.80925981,4.83470467 L7.80925981,9.36398131 C7.80925981,9.73883925 8.11112897,10.0408355 8.48598692,10.0408355 Z" id="Fill-1"></path>
                    <path d="M8.48598692,16.9999682 C3.8056486,16.9999682 0,13.1943196 0,8.51398131 C0,3.83364299 3.8056486,0.0280261682 8.48598692,0.0280261682 C13.1663252,0.0280261682 16.9719421,3.83364299 16.9719421,8.51398131 C16.9719421,13.1943196 13.1663252,16.9999682 8.48598692,16.9999682 Z M8.48598692,1.3815757 C4.55533271,1.3815757 1.35358131,4.58335888 1.35358131,8.51398131 C1.35358131,12.4446037 4.55533271,15.6463869 8.48598692,15.6463869 C12.4166093,15.6463869 15.6183925,12.4446037 15.6183925,8.51398131 C15.6183925,4.58335888 12.4166093,1.3815757 8.48598692,1.3815757 Z" id="Fill-2"></path>
                </g>
            </g>
        </g>
    </g>
</svg>